<svg xmlns="http://www.w3.org/2000/svg" version="1.1" xmlns:xlink="http://www.w3.org/1999/xlink" xmlns:svgjs="http://svgjs.dev/svgjs" width="1000" height="1000" viewBox="0 0 1000 1000"><rect width="1000" height="1000" fill="#ffffff"></rect><g transform="matrix(0.7,0,0,0.7,149.57575757575756,438.37263403795487)"><svg viewBox="0 0 396 70" data-background-color="#ffffff" preserveAspectRatio="xMidYMid meet" height="176" width="1000" xmlns="http://www.w3.org/2000/svg" xmlns:xlink="http://www.w3.org/1999/xlink"><g id="tight-bounds" transform="matrix(1,0,0,1,0.2400000000000091,0.015548842071098079)"><svg viewBox="0 0 395.52 69.96890231585779" height="69.96890231585779" width="395.52"><g><svg viewBox="0 0 395.52 69.96890231585779" height="69.96890231585779" width="395.52"><g><svg viewBox="0 0 488.2120505915292 86.36645751735267" height="69.96890231585779" width="395.52"><g><svg viewBox="0 0 488.2120505915292 86.36645751735267" height="86.36645751735267" width="488.2120505915292"><g id="textblocktransform"><svg viewBox="0 0 488.2120505915292 86.36645751735267" height="86.36645751735267" width="488.2120505915292" id="textblock"><g><svg viewBox="0 0 488.2120505915292 52.9086" height="52.9086" width="488.2120505915292"><g><svg><g></g><g></g></svg></g><g><svg><g></g><g><svg></svg></g></svg></g><g id="text-0"><svg viewBox="0 0 488.2120505915292 52.9086" height="52.9086" width="488.2120505915292"><g><svg xmlns="http://www.w3.org/2000/svg" xmlns:xlink="http://www.w3.org/1999/xlink" version="1.1" x="0" y="0" viewBox="2.5717664954489403 20.05576649544894 95.00069744973837 62.67223350455106" enable-background="new 0 0 100 100" xml:space="preserve" height="52.9086" width="80.20065059152918" class="icon-g$-0" data-fill-palette-color="accent" id="g$-0"><g fill="#10847e" data-fill-palette-color="accent"><path d="M25.733 22.57c-2.43-1.403-5.086-2.071-7.704-2.071-5.336 0-10.525 2.77-13.386 7.722-4.264 7.385-1.733 16.827 5.651 21.09l19.908 11.496 15.439-26.742L25.733 22.57zM29.449 57.994L11.324 47.528c-3.096-1.786-5.309-4.672-6.234-8.124-0.926-3.453-0.45-7.059 1.337-10.154 2.383-4.128 6.829-6.692 11.603-6.692 2.333 0 4.641 0.62 6.675 1.795l18.125 10.465L29.449 57.994z" fill="#10847e" data-fill-palette-color="accent"></path><path d="M95.502 27.778c-4.264-7.384-13.706-9.915-21.092-5.651L54.502 33.621l15.439 26.741 19.907-11.494C97.234 44.604 99.765 35.162 95.502 27.778zM82.879 24.493c-3.106-0.235-6.019 2.617-9.021 0.595-0.063-0.043-0.128-0.107-0.191-0.155l1.773-1.023c4.158-2.4 9.074-2.295 13.023-0.179C87.979 25.33 85.204 24.669 82.879 24.493z" fill="#10847e" data-fill-palette-color="accent"></path><circle cx="49.283" cy="60.739" r="3.4" fill="#10847e" data-fill-palette-color="accent"></circle><circle cx="57.345" cy="69.487" r="2.9" fill="#10847e" data-fill-palette-color="accent"></circle><circle cx="58.546" cy="54.906" r="2.9" fill="#10847e" data-fill-palette-color="accent"></circle><circle cx="47.224" cy="71.031" r="2.4" fill="#10847e" data-fill-palette-color="accent"></circle><path d="M52.91 75.49c-1.328 0-2.403 1.075-2.403 2.402 0 1.326 1.075 2.401 2.403 2.401 1.324 0 2.4-1.075 2.4-2.401C55.311 76.565 54.234 75.49 52.91 75.49z" fill="#10847e" data-fill-palette-color="accent"></path><circle cx="40.362" cy="69.315" r="2.4" fill="#10847e" data-fill-palette-color="accent"></circle><circle cx="44.593" cy="80.326" r="2.4" fill="#10847e" data-fill-palette-color="accent"></circle><circle cx="41.735" cy="55.593" r="2.4" fill="#10847e" data-fill-palette-color="accent"></circle><circle cx="47.911" cy="47.701" r="2.4" fill="#10847e" data-fill-palette-color="accent"></circle></g></svg></g><g transform="matrix(1,0,0,1,92.69205059152918,0.17737192198293172)"><svg width="395.52" viewBox="3 -32.25 246.08 32.7" height="52.553856156034136" data-palette-color="#10847e"><path d="M33.25-32.05L36.4 0 32.8 0 32.05-9.75 30.35-25.7 30-25.7 21.1-3.7 17.8-3.7 9.35-25.7 8.95-25.7 7.25-10.05 6.4 0 3 0 6.35-32.05 10.9-32.05 12.55-27.15 19.5-8.9 19.8-8.9 27.1-27.45 28.75-32.05 33.25-32.05ZM62.15-3.5L62.4-3.1 62.1 0 44.1 0 44.35-9.65 44.1-32.05 62.15-32.05 62.35-31.65 62.05-28.55 54.5-28.7 48.15-28.6 48.05-18.1 54.05-18 59.35-18.15 59.65-17.8 59.3-14.7 53.7-14.8 48-14.75 47.95-10 48.1-3.35 54.45-3.3 62.15-3.5ZM79.8-32.25Q86.65-32.25 90.3-28.35 93.95-24.45 93.95-17.15L93.95-17.15Q93.95-8.7 90-4.2 86.05 0.3 78.65 0.3L78.65 0.3Q76.6 0.3 73.67 0.23 70.75 0.15 68.25 0L68.25 0 68.2 0 68.45-9.65 68.2-32.05 68.25-32.05 79.8-32.25ZM79.3-3.05Q84.4-3.05 87.12-6.38 89.85-9.7 89.85-16.3L89.85-16.3Q89.85-28.9 79.5-28.9L79.5-28.9Q76.35-28.9 72.25-28.7L72.25-28.7 72.05-10 72.2-3.35Q73.75-3.2 75.92-3.13 78.1-3.05 79.3-3.05L79.3-3.05ZM110.29-32.1Q114.99-32.1 117.54-29.68 120.09-27.25 120.09-22.7L120.09-22.7Q120.09-17.35 116.92-14.3 113.74-11.25 108.14-11.25L108.14-11.25 104.34-11.25 104.34-10 104.54 0 100.49 0 100.74-9.65 100.49-32.05 110.29-32.1ZM109.64-14.5Q112.74-15 114.37-17 115.99-19 115.99-22.35L115.99-22.35Q115.99-28.55 109.39-28.8L109.39-28.8 104.54-28.65 104.39-14.6 109.64-14.5ZM151.34-32.05L151.14-10 151.24 0 147.29 0 147.49-9.65 147.44-14.45 138.54-14.5 130.39-14.45 130.34-10 130.49 0 126.54 0 126.69-9.65 126.54-32.05 130.54-32.05 130.39-17.85 138.89-17.8 147.44-17.85 147.29-32.05 151.34-32.05ZM173.14-32.05L183.84 0 179.74 0 178.99-3.2 177.19-8.7 169.99-8.85 163.49-8.7 161.54-3.4 160.74 0 156.74 0 168.49-32.05 173.14-32.05ZM170.34-12L176.09-12.1 170.89-27.9 170.54-27.9 164.74-12.1 170.34-12ZM202.64-12.95Q205.94-7.5 210.94-0.95L210.94-0.95 210.89-0.45Q209.09 0.25 207.19 0.45L207.19 0.45 206.64 0.1Q202.54-6.05 199.29-11.9L199.29-11.9 193.44-11.9 193.44-10 193.64 0 189.59 0 189.84-9.65 189.59-32.05 199.39-32.1Q204.09-32.1 206.66-29.73 209.24-27.35 209.24-22.95L209.24-22.95Q209.24-19.65 207.51-17.03 205.79-14.4 202.64-12.95L202.64-12.95ZM193.64-28.65L193.49-15.3 199.49-15.15Q205.09-16.75 205.09-22.6L205.09-22.6Q205.09-25.65 203.44-27.18 201.79-28.7 198.49-28.8L198.49-28.8 193.64-28.65ZM245.93-32.05L249.08 0 245.48 0 244.73-9.75 243.03-25.7 242.68-25.7 233.78-3.7 230.48-3.7 222.03-25.7 221.63-25.7 219.93-10.05 219.08 0 215.68 0 219.03-32.05 223.58-32.05 225.23-27.15 232.18-8.9 232.48-8.9 239.78-27.45 241.43-32.05 245.93-32.05Z" opacity="1" transform="matrix(1,0,0,1,0,0)" fill="#10847e" class="undefined-text-0" data-fill-palette-color="primary"></path></svg></g></svg></g></svg></g><g transform="matrix(1,0,0,1,201.5827556892424,65.31530414589191)"><svg viewBox="0 0 286.6292949022868 21.051153371460767" height="21.051153371460767" width="286.6292949022868"><g transform="matrix(1,0,0,1,0,0)"><svg width="286.6292949022868" viewBox="2.2 -38.01 662.76 48.68" height="21.051153371460767" data-palette-color="#175552"><path d="M27.86-20.97L27.86-15.01Q27.86-6.2 23.1-2.2L23.1-2.2 28 2.2 23.49 6.35 16.94 0.37 15.06 0.49Q9.03 0.49 5.63-3.6 2.22-7.69 2.2-14.92L2.2-14.92 2.2-20.48Q2.2-27.81 5.59-31.92 8.98-36.04 15.01-36.04L15.01-36.04Q20.9-36.04 24.32-32.08 27.73-28.13 27.86-20.97L27.86-20.97ZM20.65-14.84L20.65-20.53Q20.65-25.39 19.26-27.71 17.87-30.03 15.01-30.03 12.16-30.03 10.79-27.77 9.42-25.51 9.38-20.9L9.38-20.9 9.38-15.01Q9.38-10.13 10.78-7.81 12.18-5.49 15.06-5.49L15.06-5.49Q17.87-5.49 19.25-7.8 20.63-10.11 20.65-14.84L20.65-14.84ZM45.87 0L45.68-2.42Q43.53 0.49 39.91 0.49L39.91 0.49Q36.28 0.49 34.4-2.01 32.52-4.52 32.52-9.3L32.52-9.3 32.52-26.42 39.43-26.42 39.43-9.13Q39.48-5.27 41.99-5.27L41.99-5.27Q44.36-5.27 45.41-7.32L45.41-7.32 45.41-26.42 52.37-26.42 52.37 0 45.87 0ZM76.8 0L69.84 0Q69.55-0.61 69.26-2.05L69.26-2.05Q67.4 0.49 64.23 0.49L64.23 0.49Q60.91 0.49 58.72-1.71 56.54-3.91 56.54-7.4L56.54-7.4Q56.54-11.55 59.19-13.82 61.84-16.09 66.82-16.14L66.82-16.14 68.92-16.14 68.92-18.26Q68.92-20.04 68.31-20.78 67.7-21.51 66.52-21.51L66.52-21.51Q63.94-21.51 63.94-18.48L63.94-18.48 57.03-18.48Q57.03-22.14 59.77-24.52 62.52-26.9 66.72-26.9L66.72-26.9Q71.06-26.9 73.44-24.65 75.83-22.39 75.83-18.19L75.83-18.19 75.83-5.76Q75.87-2.34 76.8-0.42L76.8-0.42 76.8 0ZM65.77-4.93L65.77-4.93Q66.91-4.93 67.72-5.4 68.53-5.86 68.92-6.49L68.92-6.49 68.92-11.99 67.26-11.99Q65.5-11.99 64.48-10.86 63.47-9.74 63.47-7.86L63.47-7.86Q63.47-4.93 65.77-4.93ZM88.08-37.5L88.08 0 81.14 0 81.14-37.5 88.08-37.5ZM100.67-26.42L100.67 0 93.74 0 93.74-26.42 100.67-26.42ZM93.42-33.25L93.42-33.25Q93.42-34.86 94.45-35.89 95.47-36.91 97.18-36.91 98.89-36.91 99.92-35.89 100.94-34.86 100.94-33.25L100.94-33.25Q100.94-31.67 99.93-30.62 98.92-29.57 97.18-29.57 95.45-29.57 94.44-30.62 93.42-31.67 93.42-33.25ZM107.14-32.91L114.05-32.91 114.05-26.42 117.59-26.42 117.59-21.22 114.05-21.22 114.05-8.11Q114.05-6.54 114.48-5.96 114.9-5.37 116.13-5.37L116.13-5.37Q117.13-5.37 117.76-5.54L117.76-5.54 117.71-0.17Q115.95 0.49 113.9 0.49L113.9 0.49Q107.21 0.49 107.14-7.18L107.14-7.18 107.14-21.22 104.09-21.22 104.09-26.42 107.14-26.42 107.14-32.91ZM126.67-26.42L129.84-11.5 133.36-26.42 140.73-26.42 132.04 3.96Q130.09 10.67 124.69 10.67L124.69 10.67Q123.45 10.67 121.86 10.21L121.86 10.21 121.86 4.81 122.67 4.83Q124.28 4.83 125.09 4.21 125.91 3.59 126.33 2.05L126.33 2.05 126.86 0.27 119.25-26.42 126.67-26.42ZM164.75 0L155.55 0 155.55-35.55 164.95-35.55Q171.17-35.55 174.87-31.59 178.57-27.64 178.64-20.75L178.64-20.75 178.64-14.99Q178.64-7.98 174.94-3.99 171.24 0 164.75 0L164.75 0ZM165.34-29.57L162.72-29.57 162.72-5.96 164.87-5.96Q168.46-5.96 169.93-7.85 171.39-9.74 171.46-14.38L171.46-14.38 171.46-20.56Q171.46-25.54 170.07-27.5 168.68-29.47 165.34-29.57L165.34-29.57ZM196.56-26.59L196.49-19.75 194.19-19.95Q191.36-19.95 190.36-17.46L190.36-17.46 190.36 0 183.42 0 183.42-26.42 189.94-26.42 190.14-23.56Q191.77-26.9 194.66-26.9L194.66-26.9Q195.83-26.9 196.56-26.59L196.56-26.59ZM213.21 0L213.01-2.42Q210.86 0.49 207.25 0.49L207.25 0.49Q203.61 0.49 201.73-2.01 199.85-4.52 199.85-9.3L199.85-9.3 199.85-26.42 206.76-26.42 206.76-9.13Q206.81-5.27 209.33-5.27L209.33-5.27Q211.69-5.27 212.74-7.32L212.74-7.32 212.74-26.42 219.7-26.42 219.7 0 213.21 0ZM223.8-12.06L223.8-14.01Q223.8-20.51 226.14-23.71 228.49-26.9 232.71-26.9L232.71-26.9Q236.3-26.9 238.25-24.07L238.25-24.07 238.52-26.42 244.75-26.42 244.75 0Q244.75 5.05 241.92 7.73 239.08 10.4 233.79 10.4L233.79 10.4Q231.61 10.4 229.22 9.53 226.83 8.67 225.66 7.32L225.66 7.32 227.98 2.54Q228.95 3.56 230.51 4.21 232.08 4.86 233.47 4.86L233.47 4.86Q235.79 4.86 236.8 3.75 237.81 2.64 237.84 0.17L237.84 0.17 237.84-2.1Q235.86 0.49 232.69 0.49L232.69 0.49Q228.46 0.49 226.16-2.8 223.85-6.08 223.8-12.06L223.8-12.06ZM230.71-14.01L230.71-12.28Q230.71-8.62 231.66-6.95 232.61-5.27 234.69-5.27L234.69-5.27Q236.81-5.27 237.84-6.81L237.84-6.81 237.84-19.43Q236.76-21.12 234.74-21.12L234.74-21.12Q232.69-21.12 231.7-19.43 230.71-17.75 230.71-14.01L230.71-14.01ZM261.47-7.08L261.47-7.08Q261.47-7.96 260.63-8.7 259.78-9.45 256.88-10.72L256.88-10.72Q252.61-12.45 251.01-14.31 249.41-16.16 249.41-18.92L249.41-18.92Q249.41-22.39 251.91-24.65 254.41-26.9 258.54-26.9L258.54-26.9Q262.89-26.9 265.5-24.66 268.11-22.41 268.11-18.63L268.11-18.63 261.2-18.63Q261.2-21.85 258.51-21.85L258.51-21.85Q257.42-21.85 256.71-21.17 256-20.48 256-19.26L256-19.26Q256-18.38 256.78-17.71 257.56-17.04 260.47-15.8L260.47-15.8Q264.69-14.23 266.44-12.32 268.18-10.4 268.18-7.35L268.18-7.35Q268.18-3.81 265.52-1.66 262.86 0.49 258.54 0.49L258.54 0.49Q255.63 0.49 253.41-0.65 251.19-1.78 249.93-3.81 248.68-5.83 248.68-8.18L248.68-8.18 255.24-8.18Q255.29-6.37 256.09-5.47 256.88-4.57 258.69-4.57L258.69-4.57Q261.47-4.57 261.47-7.08ZM292.52 0L285.59 0 285.59-21.22 282.39-21.22 282.39-26.42 285.59-26.42 285.59-28.78Q285.61-33.15 287.89-35.58 290.17-38.01 294.2-38.01L294.2-38.01Q295.42-38.01 297.33-37.52L297.33-37.52 297.28-32.01Q296.57-32.23 295.59-32.23L295.59-32.23Q292.52-32.23 292.52-28.56L292.52-28.56 292.52-26.42 296.64-26.42 296.64-21.22 292.52-21.22 292.52 0ZM299.57-12.38L299.57-14.06Q299.57-20.07 302.4-23.49 305.24-26.9 310.24-26.9L310.24-26.9Q315.29-26.9 318.13-23.49 320.96-20.07 320.96-14.01L320.96-14.01 320.96-12.33Q320.96-6.3 318.15-2.91 315.34 0.49 310.29 0.49L310.29 0.49Q305.21 0.49 302.39-2.92 299.57-6.32 299.57-12.38L299.57-12.38ZM306.51-14.06L306.51-12.33Q306.51-5.25 310.29-5.25L310.29-5.25Q313.78-5.25 314.05-11.16L314.05-11.16 314.07-14.06Q314.07-17.68 313.07-19.42 312.07-21.17 310.24-21.17L310.24-21.17Q308.48-21.17 307.49-19.42 306.51-17.68 306.51-14.06L306.51-14.06ZM338.36-26.59L338.29-19.75 336-19.95Q333.16-19.95 332.16-17.46L332.16-17.46 332.16 0 325.23 0 325.23-26.42 331.75-26.42 331.94-23.56Q333.58-26.9 336.46-26.9L336.46-26.9Q337.63-26.9 338.36-26.59L338.36-26.59ZM378.62-35.55L378.62 0 371.46 0 371.46-15.21 360.87-15.21 360.87 0 353.69 0 353.69-35.55 360.87-35.55 360.87-21.17 371.46-21.17 371.46-35.55 378.62-35.55ZM394.7 0.49L394.7 0.49Q389.38 0.49 386.4-2.69 383.42-5.86 383.42-11.77L383.42-11.77 383.42-13.87Q383.42-20.12 386.16-23.51 388.89-26.9 394-26.9L394-26.9Q398.98-26.9 401.49-23.72 404.01-20.53 404.05-14.28L404.05-14.28 404.05-10.89 390.31-10.89Q390.46-7.96 391.6-6.6 392.75-5.25 395.14-5.25L395.14-5.25Q398.61-5.25 400.93-7.62L400.93-7.62 403.64-3.44Q402.37-1.68 399.95-0.6 397.54 0.49 394.7 0.49ZM390.36-15.72L390.36-15.72 397.27-15.72 397.27-16.36Q397.22-18.73 396.49-19.95 395.75-21.17 393.95-21.17 392.14-21.17 391.32-19.87 390.5-18.58 390.36-15.72ZM427.46 0L420.51 0Q420.21-0.61 419.92-2.05L419.92-2.05Q418.07 0.49 414.89 0.49L414.89 0.49Q411.57 0.49 409.39-1.71 407.2-3.91 407.2-7.4L407.2-7.4Q407.2-11.55 409.85-13.82 412.5-16.09 417.48-16.14L417.48-16.14 419.58-16.14 419.58-18.26Q419.58-20.04 418.97-20.78 418.36-21.51 417.19-21.51L417.19-21.51Q414.6-21.51 414.6-18.48L414.6-18.48 407.69-18.48Q407.69-22.14 410.44-24.52 413.18-26.9 417.38-26.9L417.38-26.9Q421.73-26.9 424.11-24.65 426.49-22.39 426.49-18.19L426.49-18.19 426.49-5.76Q426.54-2.34 427.46-0.42L427.46-0.42 427.46 0ZM416.43-4.93L416.43-4.93Q417.58-4.93 418.38-5.4 419.19-5.86 419.58-6.49L419.58-6.49 419.58-11.99 417.92-11.99Q416.16-11.99 415.15-10.86 414.13-9.74 414.13-7.86L414.13-7.86Q414.13-4.93 416.43-4.93ZM438.74-37.5L438.74 0 431.81 0 431.81-37.5 438.74-37.5ZM445.21-32.91L452.12-32.91 452.12-26.42 455.66-26.42 455.66-21.22 452.12-21.22 452.12-8.11Q452.12-6.54 452.55-5.96 452.97-5.37 454.19-5.37L454.19-5.37Q455.19-5.37 455.83-5.54L455.83-5.54 455.78-0.17Q454.02 0.49 451.97 0.49L451.97 0.49Q445.28 0.49 445.21-7.18L445.21-7.18 445.21-21.22 442.16-21.22 442.16-26.42 445.21-26.42 445.21-32.91ZM466.18-37.5L466.18-24.1Q468.42-26.9 471.7-26.9L471.7-26.9Q475.31-26.9 477.19-24.37 479.07-21.83 479.09-16.8L479.09-16.8 479.09 0 472.16 0 472.16-16.72Q472.16-19.04 471.44-20.08 470.72-21.12 469.11-21.12L469.11-21.12Q467.23-21.12 466.18-19.38L466.18-19.38 466.18 0 459.27 0 459.27-37.5 466.18-37.5ZM491.3-26.42L491.3 0 484.36 0 484.36-26.42 491.3-26.42ZM484.05-33.25L484.05-33.25Q484.05-34.86 485.07-35.89 486.1-36.91 487.81-36.91 489.52-36.91 490.54-35.89 491.57-34.86 491.57-33.25L491.57-33.25Q491.57-31.67 490.55-30.62 489.54-29.57 487.81-29.57 486.07-29.57 485.06-30.62 484.05-31.67 484.05-33.25ZM507.31 0.49L507.31 0.49Q501.99 0.49 499.01-2.69 496.03-5.86 496.03-11.77L496.03-11.77 496.03-13.87Q496.03-20.12 498.77-23.51 501.5-26.9 506.6-26.9L506.6-26.9Q511.58-26.9 514.1-23.72 516.61-20.53 516.66-14.28L516.66-14.28 516.66-10.89 502.92-10.89Q503.06-7.96 504.21-6.6 505.36-5.25 507.75-5.25L507.75-5.25Q511.22-5.25 513.54-7.62L513.54-7.62 516.25-3.44Q514.98-1.68 512.56-0.6 510.14 0.49 507.31 0.49ZM502.96-15.72L502.96-15.72 509.87-15.72 509.87-16.36Q509.83-18.73 509.09-19.95 508.36-21.17 506.55-21.17 504.75-21.17 503.93-19.87 503.11-18.58 502.96-15.72ZM533.68-26.59L533.6-19.75 531.31-19.95Q528.48-19.95 527.47-17.46L527.47-17.46 527.47 0 520.54 0 520.54-26.42 527.06-26.42 527.25-23.56Q528.89-26.9 531.77-26.9L531.77-26.9Q532.94-26.9 533.68-26.59L533.68-26.59ZM556.18-35.55L556.18-5.96 568.78-5.96 568.78 0 549 0 549-35.55 556.18-35.55ZM579.83-26.42L579.83 0 572.9 0 572.9-26.42 579.83-26.42ZM572.58-33.25L572.58-33.25Q572.58-34.86 573.61-35.89 574.63-36.91 576.34-36.91 578.05-36.91 579.08-35.89 580.1-34.86 580.1-33.25L580.1-33.25Q580.1-31.67 579.09-30.62 578.08-29.57 576.34-29.57 574.61-29.57 573.6-30.62 572.58-31.67 572.58-33.25ZM590.5-26.42L593.85-9.77 597.19-26.42 604.39-26.42 597.14 0 590.55 0 583.27-26.42 590.5-26.42ZM614.89-26.42L614.89 0 607.95 0 607.95-26.42 614.89-26.42ZM607.64-33.25L607.64-33.25Q607.64-34.86 608.66-35.89 609.69-36.91 611.4-36.91 613.11-36.91 614.13-35.89 615.16-34.86 615.16-33.25L615.16-33.25Q615.16-31.67 614.14-30.62 613.13-29.57 611.4-29.57 609.66-29.57 608.65-30.62 607.64-31.67 607.64-33.25ZM620.06-26.42L626.56-26.42 626.75-23.8Q629.09-26.9 632.88-26.9L632.88-26.9Q639.69-26.9 639.89-17.36L639.89-17.36 639.89 0 632.95 0 632.95-16.85Q632.95-19.09 632.28-20.1 631.61-21.12 629.92-21.12L629.92-21.12Q628.04-21.12 627-19.19L627-19.19 627 0 620.06 0 620.06-26.42ZM644.01-12.06L644.01-14.01Q644.01-20.51 646.35-23.71 648.7-26.9 652.92-26.9L652.92-26.9Q656.51-26.9 658.46-24.07L658.46-24.07 658.73-26.42 664.96-26.42 664.96 0Q664.96 5.05 662.12 7.73 659.29 10.4 653.99 10.4L653.99 10.4Q651.82 10.4 649.43 9.53 647.04 8.67 645.86 7.32L645.86 7.32 648.18 2.54Q649.16 3.56 650.72 4.21 652.29 4.86 653.68 4.86L653.68 4.86Q656 4.86 657.01 3.75 658.02 2.64 658.05 0.17L658.05 0.17 658.05-2.1Q656.07 0.49 652.9 0.49L652.9 0.49Q648.67 0.49 646.37-2.8 644.06-6.08 644.01-12.06L644.01-12.06ZM650.92-14.01L650.92-12.28Q650.92-8.62 651.87-6.95 652.82-5.27 654.9-5.27L654.9-5.27Q657.02-5.27 658.05-6.81L658.05-6.81 658.05-19.43Q656.97-21.12 654.95-21.12L654.95-21.12Q652.9-21.12 651.91-19.43 650.92-17.75 650.92-14.01L650.92-14.01Z" opacity="1" transform="matrix(1,0,0,1,0,0)" fill="#175552" class="undefined-text-1" data-fill-palette-color="secondary" id="text-1"></path></svg></g></svg></g></svg></g></svg></g></svg></g></svg></g><defs></defs></svg><rect width="395.52" height="69.96890231585779" fill="none" stroke="none" visibility="hidden"></rect></g></svg></g></svg>