<svg width="72" height="72" viewBox="0 0 72 72" fill="none" xmlns="http://www.w3.org/2000/svg">
<rect x="0.505981" y="0.128662" width="71.4116" height="71.4116" rx="20" fill="#10847E" fill-opacity="0.15"/>
<rect x="0.505981" y="0.128662" width="71.4116" height="71.4116" rx="20" stroke="white"/>
<path d="M37.718 35.0906C39.3537 33.6285 41.5237 32.7475 43.9008 32.7475C45.3372 32.7475 46.6735 33.0869 47.8689 33.6289L49.3892 32.2459C51.3894 30.1366 51.0754 26.3811 48.576 23.6979C46.0915 20.9825 42.3587 20.3835 40.0904 22.246L31.5037 30.1869C32.7895 30.6812 34.0207 31.3637 35.1148 32.3279C36.4546 33.3858 37.2998 34.5237 37.7181 35.0902L37.718 35.0906Z" fill="#008A5E"/>
<path d="M36.8088 35.9904C36.5159 35.568 35.6425 34.3867 34.3133 33.2568C33.1073 32.2455 31.8294 31.5456 30.5185 31.1368L21.7328 39.258C19.5228 41.3057 19.772 45.2307 22.3897 47.9897C24.9319 50.7449 28.8029 51.3227 31.002 49.2676L35.0538 45.5052C34.6962 44.4837 34.4796 43.378 34.4796 42.23C34.4794 39.8325 35.3427 37.6297 36.8092 35.9902L36.8088 35.9904Z" fill="#008A5E"/>
<path d="M51.8302 39.8101L36.4836 45.8912C38.3541 49.6973 42.8858 51.5067 46.9552 49.9185C50.9853 48.2998 53.0756 43.9023 51.8301 39.8103L51.8302 39.8101Z" fill="#008A5E"/>
<path d="M40.8704 34.4983C36.8266 36.084 34.7139 40.5077 35.9604 44.5912L51.3175 38.5101C49.4352 34.7008 44.9043 32.8988 40.8704 34.4982V34.4983Z" fill="#008A5E"/>
</svg>
